<mxfile host="Electron" modified="2024-09-04T19:03:20.385Z" agent="Mozilla/5.0 (Windows NT 10.0; Win64; x64) AppleWebKit/537.36 (KHTML, like Gecko) draw.io/22.1.2 Chrome/114.0.5735.289 Electron/25.9.4 Safari/537.36" etag="hx4XUw0CHL_2GbJ9E0Ur" version="22.1.2" type="device">
  <diagram name="Page-1" id="KUBcR4_UfHzxSYPxNXHy">
    <mxGraphModel dx="880" dy="1693" grid="1" gridSize="10" guides="1" tooltips="1" connect="1" arrows="1" fold="1" page="1" pageScale="1" pageWidth="827" pageHeight="1169" math="0" shadow="0">
      <root>
        <mxCell id="0" />
        <mxCell id="1" parent="0" />
        <mxCell id="RqS4wbNQnQuud6CDBGNb-5" value="utilisateurs" style="swimlane;whiteSpace=wrap;html=1;" vertex="1" parent="1">
          <mxGeometry x="40" y="23" width="190" height="300" as="geometry" />
        </mxCell>
        <mxCell id="RqS4wbNQnQuud6CDBGNb-8" value="password_digest" style="text;html=1;align=center;verticalAlign=middle;resizable=0;points=[];autosize=1;strokeColor=none;fillColor=none;" vertex="1" parent="RqS4wbNQnQuud6CDBGNb-5">
          <mxGeometry y="88" width="110" height="30" as="geometry" />
        </mxCell>
        <mxCell id="RqS4wbNQnQuud6CDBGNb-10" value="phone_number" style="text;html=1;align=center;verticalAlign=middle;resizable=0;points=[];autosize=1;strokeColor=none;fillColor=none;" vertex="1" parent="RqS4wbNQnQuud6CDBGNb-5">
          <mxGeometry y="158" width="100" height="30" as="geometry" />
        </mxCell>
        <mxCell id="RqS4wbNQnQuud6CDBGNb-12" value="created_at" style="text;html=1;align=center;verticalAlign=middle;resizable=0;points=[];autosize=1;strokeColor=none;fillColor=none;" vertex="1" parent="RqS4wbNQnQuud6CDBGNb-5">
          <mxGeometry y="228" width="80" height="30" as="geometry" />
        </mxCell>
        <mxCell id="RqS4wbNQnQuud6CDBGNb-13" value="updated_at" style="text;html=1;align=center;verticalAlign=middle;resizable=0;points=[];autosize=1;strokeColor=none;fillColor=none;" vertex="1" parent="RqS4wbNQnQuud6CDBGNb-5">
          <mxGeometry x="10" y="258" width="80" height="30" as="geometry" />
        </mxCell>
        <mxCell id="RqS4wbNQnQuud6CDBGNb-6" value="nom" style="text;html=1;align=center;verticalAlign=middle;resizable=0;points=[];autosize=1;strokeColor=none;fillColor=none;" vertex="1" parent="1">
          <mxGeometry x="75" y="58" width="50" height="30" as="geometry" />
        </mxCell>
        <mxCell id="RqS4wbNQnQuud6CDBGNb-7" value="e-mail" style="text;html=1;align=center;verticalAlign=middle;resizable=0;points=[];autosize=1;strokeColor=none;fillColor=none;" vertex="1" parent="1">
          <mxGeometry x="70" y="88" width="60" height="30" as="geometry" />
        </mxCell>
        <mxCell id="RqS4wbNQnQuud6CDBGNb-9" value="adresse" style="text;html=1;align=center;verticalAlign=middle;resizable=0;points=[];autosize=1;strokeColor=none;fillColor=none;" vertex="1" parent="1">
          <mxGeometry x="65" y="148" width="70" height="30" as="geometry" />
        </mxCell>
        <mxCell id="RqS4wbNQnQuud6CDBGNb-11" value="role" style="text;html=1;align=center;verticalAlign=middle;resizable=0;points=[];autosize=1;strokeColor=none;fillColor=none;" vertex="1" parent="1">
          <mxGeometry x="80" y="228" width="40" height="30" as="geometry" />
        </mxCell>
        <mxCell id="RqS4wbNQnQuud6CDBGNb-18" value="produits" style="swimlane;whiteSpace=wrap;html=1;" vertex="1" parent="1">
          <mxGeometry x="370" y="23" width="200" height="300" as="geometry" />
        </mxCell>
        <mxCell id="RqS4wbNQnQuud6CDBGNb-20" value="description" style="text;html=1;align=center;verticalAlign=middle;resizable=0;points=[];autosize=1;strokeColor=none;fillColor=none;" vertex="1" parent="RqS4wbNQnQuud6CDBGNb-18">
          <mxGeometry x="10" y="50" width="80" height="30" as="geometry" />
        </mxCell>
        <mxCell id="RqS4wbNQnQuud6CDBGNb-24" value="auction_start_date" style="text;html=1;align=center;verticalAlign=middle;resizable=0;points=[];autosize=1;strokeColor=none;fillColor=none;" vertex="1" parent="RqS4wbNQnQuud6CDBGNb-18">
          <mxGeometry x="9" y="160" width="120" height="30" as="geometry" />
        </mxCell>
        <mxCell id="RqS4wbNQnQuud6CDBGNb-25" value="auction_end_date" style="text;html=1;align=center;verticalAlign=middle;resizable=0;points=[];autosize=1;strokeColor=none;fillColor=none;" vertex="1" parent="RqS4wbNQnQuud6CDBGNb-18">
          <mxGeometry x="9" y="190" width="120" height="30" as="geometry" />
        </mxCell>
        <mxCell id="RqS4wbNQnQuud6CDBGNb-27" value="#seller_id" style="text;html=1;align=center;verticalAlign=middle;resizable=0;points=[];autosize=1;strokeColor=none;fillColor=none;" vertex="1" parent="RqS4wbNQnQuud6CDBGNb-18">
          <mxGeometry x="20" y="270" width="70" height="30" as="geometry" />
        </mxCell>
        <mxCell id="RqS4wbNQnQuud6CDBGNb-22" value="initial_price" style="text;html=1;align=center;verticalAlign=middle;resizable=0;points=[];autosize=1;strokeColor=none;fillColor=none;" vertex="1" parent="RqS4wbNQnQuud6CDBGNb-18">
          <mxGeometry x="10" y="110" width="80" height="30" as="geometry" />
        </mxCell>
        <mxCell id="RqS4wbNQnQuud6CDBGNb-21" value="categorie" style="text;html=1;align=center;verticalAlign=middle;resizable=0;points=[];autosize=1;strokeColor=none;fillColor=none;" vertex="1" parent="RqS4wbNQnQuud6CDBGNb-18">
          <mxGeometry x="10" y="80" width="70" height="30" as="geometry" />
        </mxCell>
        <mxCell id="RqS4wbNQnQuud6CDBGNb-23" value="current_price" style="text;html=1;align=center;verticalAlign=middle;resizable=0;points=[];autosize=1;strokeColor=none;fillColor=none;" vertex="1" parent="RqS4wbNQnQuud6CDBGNb-18">
          <mxGeometry x="9" y="135" width="90" height="30" as="geometry" />
        </mxCell>
        <mxCell id="RqS4wbNQnQuud6CDBGNb-26" value="image" style="text;html=1;align=center;verticalAlign=middle;resizable=0;points=[];autosize=1;strokeColor=none;fillColor=none;" vertex="1" parent="RqS4wbNQnQuud6CDBGNb-18">
          <mxGeometry x="24" y="210" width="60" height="30" as="geometry" />
        </mxCell>
        <mxCell id="RqS4wbNQnQuud6CDBGNb-28" value="created_at" style="text;html=1;align=center;verticalAlign=middle;resizable=0;points=[];autosize=1;strokeColor=none;fillColor=none;" vertex="1" parent="RqS4wbNQnQuud6CDBGNb-18">
          <mxGeometry x="20" y="230" width="80" height="30" as="geometry" />
        </mxCell>
        <mxCell id="RqS4wbNQnQuud6CDBGNb-29" value="updated_at" style="text;html=1;align=center;verticalAlign=middle;resizable=0;points=[];autosize=1;strokeColor=none;fillColor=none;" vertex="1" parent="RqS4wbNQnQuud6CDBGNb-18">
          <mxGeometry x="20" y="250" width="80" height="30" as="geometry" />
        </mxCell>
        <mxCell id="RqS4wbNQnQuud6CDBGNb-19" value="nom" style="text;html=1;align=center;verticalAlign=middle;resizable=0;points=[];autosize=1;strokeColor=none;fillColor=none;" vertex="1" parent="RqS4wbNQnQuud6CDBGNb-18">
          <mxGeometry x="20" y="20" width="50" height="30" as="geometry" />
        </mxCell>
        <mxCell id="RqS4wbNQnQuud6CDBGNb-30" value="payments" style="swimlane;whiteSpace=wrap;html=1;" vertex="1" parent="1">
          <mxGeometry x="630" y="23" width="140" height="220" as="geometry" />
        </mxCell>
        <mxCell id="RqS4wbNQnQuud6CDBGNb-33" value="payment_method" style="text;html=1;align=center;verticalAlign=middle;resizable=0;points=[];autosize=1;strokeColor=none;fillColor=none;" vertex="1" parent="RqS4wbNQnQuud6CDBGNb-30">
          <mxGeometry x="-10" y="88" width="120" height="30" as="geometry" />
        </mxCell>
        <mxCell id="RqS4wbNQnQuud6CDBGNb-36" value="updated_at" style="text;html=1;align=center;verticalAlign=middle;resizable=0;points=[];autosize=1;strokeColor=none;fillColor=none;" vertex="1" parent="RqS4wbNQnQuud6CDBGNb-30">
          <mxGeometry x="5" y="178" width="80" height="30" as="geometry" />
        </mxCell>
        <mxCell id="RqS4wbNQnQuud6CDBGNb-34" value="statut" style="text;html=1;align=center;verticalAlign=middle;resizable=0;points=[];autosize=1;strokeColor=none;fillColor=none;" vertex="1" parent="RqS4wbNQnQuud6CDBGNb-30">
          <mxGeometry x="20" y="118" width="50" height="30" as="geometry" />
        </mxCell>
        <mxCell id="RqS4wbNQnQuud6CDBGNb-31" value="montant" style="text;html=1;align=center;verticalAlign=middle;resizable=0;points=[];autosize=1;strokeColor=none;fillColor=none;" vertex="1" parent="RqS4wbNQnQuud6CDBGNb-30">
          <mxGeometry x="10" y="32" width="70" height="30" as="geometry" />
        </mxCell>
        <mxCell id="RqS4wbNQnQuud6CDBGNb-32" value="payment_date" style="text;html=1;align=center;verticalAlign=middle;resizable=0;points=[];autosize=1;strokeColor=none;fillColor=none;" vertex="1" parent="RqS4wbNQnQuud6CDBGNb-30">
          <mxGeometry x="5" y="58" width="100" height="30" as="geometry" />
        </mxCell>
        <mxCell id="RqS4wbNQnQuud6CDBGNb-35" value="created_at" style="text;html=1;align=center;verticalAlign=middle;resizable=0;points=[];autosize=1;strokeColor=none;fillColor=none;" vertex="1" parent="RqS4wbNQnQuud6CDBGNb-30">
          <mxGeometry x="15" y="142" width="80" height="30" as="geometry" />
        </mxCell>
        <mxCell id="RqS4wbNQnQuud6CDBGNb-37" value="categories" style="swimlane;whiteSpace=wrap;html=1;" vertex="1" parent="1">
          <mxGeometry x="30" y="430" width="160" height="140" as="geometry" />
        </mxCell>
        <mxCell id="RqS4wbNQnQuud6CDBGNb-38" value="nom" style="text;html=1;align=center;verticalAlign=middle;resizable=0;points=[];autosize=1;strokeColor=none;fillColor=none;" vertex="1" parent="RqS4wbNQnQuud6CDBGNb-37">
          <mxGeometry x="5" y="28" width="50" height="30" as="geometry" />
        </mxCell>
        <mxCell id="RqS4wbNQnQuud6CDBGNb-39" value="description" style="text;html=1;align=center;verticalAlign=middle;resizable=0;points=[];autosize=1;strokeColor=none;fillColor=none;" vertex="1" parent="RqS4wbNQnQuud6CDBGNb-37">
          <mxGeometry x="4" y="50" width="80" height="30" as="geometry" />
        </mxCell>
        <mxCell id="RqS4wbNQnQuud6CDBGNb-40" value="created_at" style="text;html=1;align=center;verticalAlign=middle;resizable=0;points=[];autosize=1;strokeColor=none;fillColor=none;" vertex="1" parent="RqS4wbNQnQuud6CDBGNb-37">
          <mxGeometry x="4" y="80" width="80" height="30" as="geometry" />
        </mxCell>
        <mxCell id="RqS4wbNQnQuud6CDBGNb-41" value="updated_at" style="text;html=1;align=center;verticalAlign=middle;resizable=0;points=[];autosize=1;strokeColor=none;fillColor=none;" vertex="1" parent="RqS4wbNQnQuud6CDBGNb-37">
          <mxGeometry x="5" y="100" width="80" height="30" as="geometry" />
        </mxCell>
        <mxCell id="RqS4wbNQnQuud6CDBGNb-42" value="offres" style="swimlane;whiteSpace=wrap;html=1;" vertex="1" parent="1">
          <mxGeometry x="340" y="410" width="140" height="200" as="geometry" />
        </mxCell>
        <mxCell id="RqS4wbNQnQuud6CDBGNb-44" value="bid_date" style="text;html=1;align=center;verticalAlign=middle;resizable=0;points=[];autosize=1;strokeColor=none;fillColor=none;" vertex="1" parent="RqS4wbNQnQuud6CDBGNb-42">
          <mxGeometry x="-5" y="48" width="70" height="30" as="geometry" />
        </mxCell>
        <mxCell id="RqS4wbNQnQuud6CDBGNb-45" value="created_at" style="text;html=1;align=center;verticalAlign=middle;resizable=0;points=[];autosize=1;strokeColor=none;fillColor=none;" vertex="1" parent="RqS4wbNQnQuud6CDBGNb-42">
          <mxGeometry x="-5" y="68" width="80" height="30" as="geometry" />
        </mxCell>
        <mxCell id="RqS4wbNQnQuud6CDBGNb-46" value="updated_at" style="text;html=1;align=center;verticalAlign=middle;resizable=0;points=[];autosize=1;strokeColor=none;fillColor=none;" vertex="1" parent="RqS4wbNQnQuud6CDBGNb-42">
          <mxGeometry y="90" width="80" height="30" as="geometry" />
        </mxCell>
        <mxCell id="RqS4wbNQnQuud6CDBGNb-47" value="end_time" style="text;html=1;align=center;verticalAlign=middle;resizable=0;points=[];autosize=1;strokeColor=none;fillColor=none;" vertex="1" parent="RqS4wbNQnQuud6CDBGNb-42">
          <mxGeometry x="5" y="110" width="70" height="30" as="geometry" />
        </mxCell>
        <mxCell id="RqS4wbNQnQuud6CDBGNb-43" value="montant" style="text;html=1;align=center;verticalAlign=middle;resizable=0;points=[];autosize=1;strokeColor=none;fillColor=none;" vertex="1" parent="RqS4wbNQnQuud6CDBGNb-42">
          <mxGeometry x="-5" y="18" width="70" height="30" as="geometry" />
        </mxCell>
        <mxCell id="RqS4wbNQnQuud6CDBGNb-48" value="#user_id" style="text;html=1;align=center;verticalAlign=middle;resizable=0;points=[];autosize=1;strokeColor=none;fillColor=none;" vertex="1" parent="RqS4wbNQnQuud6CDBGNb-42">
          <mxGeometry x="10" y="137" width="70" height="30" as="geometry" />
        </mxCell>
        <mxCell id="RqS4wbNQnQuud6CDBGNb-49" value="#product_id" style="text;html=1;align=center;verticalAlign=middle;resizable=0;points=[];autosize=1;strokeColor=none;fillColor=none;" vertex="1" parent="RqS4wbNQnQuud6CDBGNb-42">
          <mxGeometry x="5" y="167" width="90" height="30" as="geometry" />
        </mxCell>
        <mxCell id="RqS4wbNQnQuud6CDBGNb-50" value="historiques" style="swimlane;whiteSpace=wrap;html=1;" vertex="1" parent="1">
          <mxGeometry x="620" y="410" width="150" height="180" as="geometry" />
        </mxCell>
        <mxCell id="RqS4wbNQnQuud6CDBGNb-51" value="bid-amount" style="text;html=1;align=center;verticalAlign=middle;resizable=0;points=[];autosize=1;strokeColor=none;fillColor=none;" vertex="1" parent="RqS4wbNQnQuud6CDBGNb-50">
          <mxGeometry y="20" width="80" height="30" as="geometry" />
        </mxCell>
        <mxCell id="RqS4wbNQnQuud6CDBGNb-52" value="bid_date" style="text;html=1;align=center;verticalAlign=middle;resizable=0;points=[];autosize=1;strokeColor=none;fillColor=none;" vertex="1" parent="RqS4wbNQnQuud6CDBGNb-50">
          <mxGeometry x="5" y="40" width="70" height="30" as="geometry" />
        </mxCell>
        <mxCell id="RqS4wbNQnQuud6CDBGNb-56" value="#product_id" style="text;html=1;align=center;verticalAlign=middle;resizable=0;points=[];autosize=1;strokeColor=none;fillColor=none;" vertex="1" parent="RqS4wbNQnQuud6CDBGNb-50">
          <mxGeometry x="-5" y="140" width="90" height="30" as="geometry" />
        </mxCell>
        <mxCell id="RqS4wbNQnQuud6CDBGNb-55" value="#user_id" style="text;html=1;align=center;verticalAlign=middle;resizable=0;points=[];autosize=1;strokeColor=none;fillColor=none;" vertex="1" parent="RqS4wbNQnQuud6CDBGNb-50">
          <mxGeometry x="5" y="120" width="70" height="30" as="geometry" />
        </mxCell>
        <mxCell id="RqS4wbNQnQuud6CDBGNb-53" value="created_at" style="text;html=1;align=center;verticalAlign=middle;resizable=0;points=[];autosize=1;strokeColor=none;fillColor=none;" vertex="1" parent="RqS4wbNQnQuud6CDBGNb-50">
          <mxGeometry y="67" width="80" height="30" as="geometry" />
        </mxCell>
        <mxCell id="RqS4wbNQnQuud6CDBGNb-54" value="updated_at" style="text;html=1;align=center;verticalAlign=middle;resizable=0;points=[];autosize=1;strokeColor=none;fillColor=none;" vertex="1" parent="RqS4wbNQnQuud6CDBGNb-50">
          <mxGeometry x="5" y="90" width="80" height="30" as="geometry" />
        </mxCell>
        <mxCell id="RqS4wbNQnQuud6CDBGNb-57" value="notifications" style="swimlane;whiteSpace=wrap;html=1;" vertex="1" parent="1">
          <mxGeometry x="50" y="690" width="150" height="180" as="geometry" />
        </mxCell>
        <mxCell id="RqS4wbNQnQuud6CDBGNb-59" value="notification_type" style="text;html=1;align=center;verticalAlign=middle;resizable=0;points=[];autosize=1;strokeColor=none;fillColor=none;" vertex="1" parent="RqS4wbNQnQuud6CDBGNb-57">
          <mxGeometry y="50" width="110" height="30" as="geometry" />
        </mxCell>
        <mxCell id="RqS4wbNQnQuud6CDBGNb-61" value="consulté" style="text;html=1;align=center;verticalAlign=middle;resizable=0;points=[];autosize=1;strokeColor=none;fillColor=none;" vertex="1" parent="RqS4wbNQnQuud6CDBGNb-57">
          <mxGeometry x="10" y="90" width="70" height="30" as="geometry" />
        </mxCell>
        <mxCell id="RqS4wbNQnQuud6CDBGNb-60" value="notification_date" style="text;html=1;align=center;verticalAlign=middle;resizable=0;points=[];autosize=1;strokeColor=none;fillColor=none;" vertex="1" parent="RqS4wbNQnQuud6CDBGNb-57">
          <mxGeometry y="70" width="110" height="30" as="geometry" />
        </mxCell>
        <mxCell id="RqS4wbNQnQuud6CDBGNb-62" value="created_at" style="text;html=1;align=center;verticalAlign=middle;resizable=0;points=[];autosize=1;strokeColor=none;fillColor=none;" vertex="1" parent="RqS4wbNQnQuud6CDBGNb-57">
          <mxGeometry x="5" y="110" width="80" height="30" as="geometry" />
        </mxCell>
        <mxCell id="RqS4wbNQnQuud6CDBGNb-63" value="updated_at" style="text;html=1;align=center;verticalAlign=middle;resizable=0;points=[];autosize=1;strokeColor=none;fillColor=none;" vertex="1" parent="RqS4wbNQnQuud6CDBGNb-57">
          <mxGeometry x="5" y="130" width="80" height="30" as="geometry" />
        </mxCell>
        <mxCell id="RqS4wbNQnQuud6CDBGNb-64" value="#user_id" style="text;html=1;align=center;verticalAlign=middle;resizable=0;points=[];autosize=1;strokeColor=none;fillColor=none;" vertex="1" parent="RqS4wbNQnQuud6CDBGNb-57">
          <mxGeometry x="5" y="150" width="70" height="30" as="geometry" />
        </mxCell>
        <mxCell id="RqS4wbNQnQuud6CDBGNb-58" value="message" style="text;html=1;align=center;verticalAlign=middle;resizable=0;points=[];autosize=1;strokeColor=none;fillColor=none;" vertex="1" parent="1">
          <mxGeometry x="55" y="718" width="70" height="30" as="geometry" />
        </mxCell>
        <mxCell id="RqS4wbNQnQuud6CDBGNb-65" value="avis" style="swimlane;whiteSpace=wrap;html=1;" vertex="1" parent="1">
          <mxGeometry x="560" y="680" width="200" height="200" as="geometry" />
        </mxCell>
        <mxCell id="RqS4wbNQnQuud6CDBGNb-66" value="evaluation" style="text;html=1;align=center;verticalAlign=middle;resizable=0;points=[];autosize=1;strokeColor=none;fillColor=none;" vertex="1" parent="RqS4wbNQnQuud6CDBGNb-65">
          <mxGeometry y="28" width="80" height="30" as="geometry" />
        </mxCell>
        <mxCell id="RqS4wbNQnQuud6CDBGNb-67" value="commentaire" style="text;html=1;align=center;verticalAlign=middle;resizable=0;points=[];autosize=1;strokeColor=none;fillColor=none;" vertex="1" parent="RqS4wbNQnQuud6CDBGNb-65">
          <mxGeometry x="-5" y="50" width="90" height="30" as="geometry" />
        </mxCell>
        <mxCell id="RqS4wbNQnQuud6CDBGNb-68" value="review_date" style="text;html=1;align=center;verticalAlign=middle;resizable=0;points=[];autosize=1;strokeColor=none;fillColor=none;" vertex="1" parent="RqS4wbNQnQuud6CDBGNb-65">
          <mxGeometry y="70" width="90" height="30" as="geometry" />
        </mxCell>
        <mxCell id="RqS4wbNQnQuud6CDBGNb-69" value="created_at" style="text;html=1;align=center;verticalAlign=middle;resizable=0;points=[];autosize=1;strokeColor=none;fillColor=none;" vertex="1" parent="RqS4wbNQnQuud6CDBGNb-65">
          <mxGeometry y="100" width="80" height="30" as="geometry" />
        </mxCell>
        <mxCell id="RqS4wbNQnQuud6CDBGNb-70" value="updated_at" style="text;html=1;align=center;verticalAlign=middle;resizable=0;points=[];autosize=1;strokeColor=none;fillColor=none;" vertex="1" parent="RqS4wbNQnQuud6CDBGNb-65">
          <mxGeometry x="-5" y="130" width="80" height="30" as="geometry" />
        </mxCell>
        <mxCell id="RqS4wbNQnQuud6CDBGNb-71" value="#user_id" style="text;html=1;align=center;verticalAlign=middle;resizable=0;points=[];autosize=1;strokeColor=none;fillColor=none;" vertex="1" parent="RqS4wbNQnQuud6CDBGNb-65">
          <mxGeometry x="5" y="150" width="70" height="30" as="geometry" />
        </mxCell>
        <mxCell id="RqS4wbNQnQuud6CDBGNb-72" value="" style="endArrow=classic;html=1;rounded=0;" edge="1" parent="1">
          <mxGeometry width="50" height="50" relative="1" as="geometry">
            <mxPoint x="230" y="130" as="sourcePoint" />
            <mxPoint x="370" y="180" as="targetPoint" />
          </mxGeometry>
        </mxCell>
        <mxCell id="RqS4wbNQnQuud6CDBGNb-73" value="" style="endArrow=classic;html=1;rounded=0;" edge="1" parent="1">
          <mxGeometry width="50" height="50" relative="1" as="geometry">
            <mxPoint x="230" y="320" as="sourcePoint" />
            <mxPoint x="690" y="240" as="targetPoint" />
            <Array as="points">
              <mxPoint x="280" y="360" />
              <mxPoint x="550" y="360" />
              <mxPoint x="680" y="360" />
            </Array>
          </mxGeometry>
        </mxCell>
        <mxCell id="RqS4wbNQnQuud6CDBGNb-74" value="" style="endArrow=classic;html=1;rounded=0;entryX=0.75;entryY=0;entryDx=0;entryDy=0;exitX=0.5;exitY=1;exitDx=0;exitDy=0;" edge="1" parent="1" source="RqS4wbNQnQuud6CDBGNb-5" target="RqS4wbNQnQuud6CDBGNb-37">
          <mxGeometry width="50" height="50" relative="1" as="geometry">
            <mxPoint x="380" y="410" as="sourcePoint" />
            <mxPoint x="430" y="360" as="targetPoint" />
          </mxGeometry>
        </mxCell>
        <mxCell id="RqS4wbNQnQuud6CDBGNb-75" value="" style="endArrow=classic;html=1;rounded=0;entryX=0.856;entryY=-0.007;entryDx=0;entryDy=0;entryPerimeter=0;exitX=0;exitY=1;exitDx=0;exitDy=0;" edge="1" parent="1" source="RqS4wbNQnQuud6CDBGNb-18" target="RqS4wbNQnQuud6CDBGNb-37">
          <mxGeometry width="50" height="50" relative="1" as="geometry">
            <mxPoint x="380" y="410" as="sourcePoint" />
            <mxPoint x="430" y="360" as="targetPoint" />
          </mxGeometry>
        </mxCell>
        <mxCell id="RqS4wbNQnQuud6CDBGNb-76" value="" style="endArrow=classic;html=1;rounded=0;entryX=0;entryY=0;entryDx=0;entryDy=0;exitX=0.75;exitY=1;exitDx=0;exitDy=0;" edge="1" parent="1" source="RqS4wbNQnQuud6CDBGNb-5" target="RqS4wbNQnQuud6CDBGNb-42">
          <mxGeometry width="50" height="50" relative="1" as="geometry">
            <mxPoint x="380" y="410" as="sourcePoint" />
            <mxPoint x="430" y="360" as="targetPoint" />
          </mxGeometry>
        </mxCell>
        <mxCell id="RqS4wbNQnQuud6CDBGNb-77" value="" style="endArrow=classic;html=1;rounded=0;entryX=0.693;entryY=-0.02;entryDx=0;entryDy=0;entryPerimeter=0;exitX=0.629;exitY=1.133;exitDx=0;exitDy=0;exitPerimeter=0;" edge="1" parent="1" source="RqS4wbNQnQuud6CDBGNb-27" target="RqS4wbNQnQuud6CDBGNb-42">
          <mxGeometry width="50" height="50" relative="1" as="geometry">
            <mxPoint x="380" y="410" as="sourcePoint" />
            <mxPoint x="430" y="360" as="targetPoint" />
          </mxGeometry>
        </mxCell>
        <mxCell id="RqS4wbNQnQuud6CDBGNb-78" value="" style="endArrow=classic;html=1;rounded=0;exitX=0.611;exitY=-0.007;exitDx=0;exitDy=0;exitPerimeter=0;" edge="1" parent="1" source="RqS4wbNQnQuud6CDBGNb-5">
          <mxGeometry width="50" height="50" relative="1" as="geometry">
            <mxPoint x="340" y="50" as="sourcePoint" />
            <mxPoint x="770" y="493" as="targetPoint" />
            <Array as="points">
              <mxPoint x="156" y="-30" />
              <mxPoint x="790" y="-30" />
              <mxPoint x="800" y="150" />
              <mxPoint x="810" y="490" />
            </Array>
          </mxGeometry>
        </mxCell>
        <mxCell id="RqS4wbNQnQuud6CDBGNb-79" value="" style="endArrow=classic;html=1;rounded=0;entryX=-0.007;entryY=0.072;entryDx=0;entryDy=0;entryPerimeter=0;exitX=0.75;exitY=1;exitDx=0;exitDy=0;" edge="1" parent="1" source="RqS4wbNQnQuud6CDBGNb-18" target="RqS4wbNQnQuud6CDBGNb-50">
          <mxGeometry width="50" height="50" relative="1" as="geometry">
            <mxPoint x="400" y="240" as="sourcePoint" />
            <mxPoint x="450" y="190" as="targetPoint" />
          </mxGeometry>
        </mxCell>
        <mxCell id="RqS4wbNQnQuud6CDBGNb-80" value="" style="endArrow=classic;html=1;rounded=0;exitX=0;exitY=1;exitDx=0;exitDy=0;entryX=-0.027;entryY=0.061;entryDx=0;entryDy=0;entryPerimeter=0;" edge="1" parent="1" source="RqS4wbNQnQuud6CDBGNb-5" target="RqS4wbNQnQuud6CDBGNb-57">
          <mxGeometry width="50" height="50" relative="1" as="geometry">
            <mxPoint x="240" y="460" as="sourcePoint" />
            <mxPoint x="290" y="410" as="targetPoint" />
            <Array as="points">
              <mxPoint x="10" y="410" />
              <mxPoint x="10" y="700" />
            </Array>
          </mxGeometry>
        </mxCell>
        <mxCell id="RqS4wbNQnQuud6CDBGNb-81" value="" style="endArrow=classic;html=1;rounded=0;entryX=-0.044;entryY=0.733;entryDx=0;entryDy=0;entryPerimeter=0;" edge="1" parent="1" target="RqS4wbNQnQuud6CDBGNb-68">
          <mxGeometry width="50" height="50" relative="1" as="geometry">
            <mxPoint x="160" y="320" as="sourcePoint" />
            <mxPoint x="400" y="740" as="targetPoint" />
            <Array as="points">
              <mxPoint x="280" y="760" />
            </Array>
          </mxGeometry>
        </mxCell>
      </root>
    </mxGraphModel>
  </diagram>
</mxfile>
